<svg xmlns="http://www.w3.org/2000/svg" version="1.1" xmlns:xlink="http://www.w3.org/1999/xlink" xmlns:svgjs="http://svgjs.com/svgjs" width="100" height="100" x="0" y="0" viewBox="0 0 512 512" style="enable-background:new 0 0 512 512" xml:space="preserve" class=""><g><linearGradient id="SVGID_1_" gradientUnits="userSpaceOnUse" x1="256" x2="256" y1="512" y2="-85.333"><stop offset="0" stop-color="#ffedad"></stop><stop offset="1" stop-color="#ffffe5"></stop></linearGradient><linearGradient id="SVGID_00000063627453932133836340000001091809577272453561_" gradientUnits="userSpaceOnUse" x1="256" x2="256" y1="407" y2="105"><stop offset="0" stop-color="#ffde00"></stop><stop offset="1" stop-color="#fd5900"></stop></linearGradient><g><circle cx="256" cy="256" fill="url(#SVGID_1_)" r="256" data-original="url(#SVGID_1_)"></circle><path d="m261.898 312.625h-8.848v-17.695h8.848c4.879 0 8.848 3.969 8.848 8.848 0 4.878-3.969 8.847-8.848 8.847zm5.899 17.695h-14.746v17.695h14.746c4.879 0 8.848-3.969 8.848-8.848s-3.97-8.847-8.848-8.847zm73.73-8.847c0 47.16-38.367 85.527-85.527 85.527s-85.527-38.367-85.527-85.527 38.367-85.528 85.527-85.528 85.527 38.368 85.527 85.528zm-47.187 17.695c0-8.482-4.004-16.042-10.217-20.905 2.726-4.169 4.318-9.144 4.318-14.486 0-13.639-10.341-24.903-23.594-26.375v-3.117c0-4.886-3.961-8.848-8.848-8.848-4.886 0-8.848 3.961-8.848 8.848v2.949h-14.746c-4.886 0-8.848 3.961-8.848 8.848 0 4.886 3.961 8.848 8.848 8.848h2.949v53.086h-2.949c-4.886 0-8.848 3.961-8.848 8.848 0 4.886 3.961 8.848 8.848 8.848h14.746v2.949c0 4.886 3.961 8.848 8.848 8.848 4.886 0 8.848-3.961 8.848-8.848v-2.949h2.949c14.637-.001 26.544-11.908 26.544-26.544zm110.705-171.863-47.173-58.984c-3.541-4.427-10.273-4.427-13.814 0l-47.173 58.984c-4.633 5.793-.51 14.375 6.907 14.375h17.681v56.035c0 4.886 3.961 8.848 8.848 8.848h41.289c4.886 0 8.848-3.961 8.848-8.848v-56.035h17.681c7.416 0 11.539-8.582 6.906-14.375zm-214.518 70.41v-56.035h17.681c7.417 0 11.54-8.582 6.907-14.375l-47.173-58.984c-3.541-4.427-10.273-4.427-13.814 0l-47.173 58.984c-4.633 5.793-.51 14.375 6.907 14.375h17.681v56.035c0 4.886 3.961 8.848 8.848 8.848h41.289c4.886-.001 8.847-3.962 8.847-8.848z" fill="url(#SVGID_00000063627453932133836340000001091809577272453561_)" data-original="url(#SVGID_00000063627453932133836340000001091809577272453561_)"></path></g></g></svg>