<svg xmlns="http://www.w3.org/2000/svg" version="1.1" xmlns:xlink="http://www.w3.org/1999/xlink" xmlns:svgjs="http://svgjs.com/svgjs" width="100" height="100" x="0" y="0" viewBox="0 0 512 512" style="enable-background:new 0 0 512 512" xml:space="preserve" class=""><g><linearGradient id="SVGID_1_" gradientUnits="userSpaceOnUse" x1="256" x2="256" y1="512" y2="-85.333"><stop offset="0" stop-color="#addcff"></stop><stop offset=".5028" stop-color="#eaf6ff"></stop><stop offset="1" stop-color="#eaf6ff"></stop></linearGradient><linearGradient id="SVGID_00000163032965073067054450000016538697124543291051_" gradientUnits="userSpaceOnUse" x1="256" x2="256" y1="407" y2="105"><stop offset="0" stop-color="#00c0ff"></stop><stop offset="1" stop-color="#5558ff"></stop></linearGradient><g><circle cx="256" cy="256" fill="url(#SVGID_1_)" r="256" data-original="url(#SVGID_1_)"></circle><path d="m144.814 275.76c0-21.989 17.826-39.814 39.814-39.814s39.814 17.826 39.814 39.814-17.826 39.814-39.814 39.814-39.814-17.825-39.814-39.814zm79.5 41.585c-10.328 9.861-24.312 15.925-39.685 15.925s-29.357-6.064-39.685-15.925c-23.854 13.77-39.944 39.544-39.944 69.01v11.797c0 4.886 3.961 8.848 8.848 8.848h141.562c4.886 0 8.848-3.961 8.848-8.848v-11.797c0-29.466-16.09-55.24-39.944-69.01zm111.905-144.513c0-4.879-3.969-8.848-8.848-8.848h-8.848v17.695h8.848c4.879.001 8.848-3.968 8.848-8.847zm70.781 17.695c0 46.187-36.805 83.941-82.624 85.479l-39.049 27.893c-5.856 4.183-13.99-.003-13.99-7.2v-36.953c-22.25-16.099-35.391-41.623-35.391-69.219 0-47.16 38.367-85.527 85.527-85.527s85.527 38.367 85.527 85.527zm-47.188 17.696c0-8.482-4.004-16.042-10.217-20.905 2.726-4.169 4.318-9.144 4.318-14.486 0-13.639-10.341-24.903-23.594-26.375v-3.117c0-4.886-3.961-8.848-8.848-8.848s-8.848 3.961-8.848 8.848v2.949h-14.746c-4.886 0-8.848 3.961-8.848 8.848s3.961 8.848 8.848 8.848h2.949v53.086h-2.949c-4.886 0-8.848 3.961-8.848 8.848s3.961 8.848 8.848 8.848h14.746v2.949c0 4.886 3.961 8.848 8.848 8.848s8.848-3.961 8.848-8.848v-2.949h2.949c14.637-.001 26.544-11.909 26.544-26.544zm-26.542-8.848h-14.746v17.695h14.746c4.879 0 8.848-3.969 8.848-8.848s-3.97-8.847-8.848-8.847z" fill="url(#SVGID_00000163032965073067054450000016538697124543291051_)" data-original="url(#SVGID_00000163032965073067054450000016538697124543291051_)"></path></g></g></svg>