<svg xmlns="http://www.w3.org/2000/svg" version="1.1" xmlns:xlink="http://www.w3.org/1999/xlink" xmlns:svgjs="http://svgjs.com/svgjs" width="100" height="100" x="0" y="0" viewBox="0 0 512 512" style="enable-background:new 0 0 512 512" xml:space="preserve" class=""><g><linearGradient id="SVGID_1_" gradientUnits="userSpaceOnUse" x1="256" x2="256" y1="512" y2="-85.333"><stop offset="0" stop-color="#ffc8d1"></stop><stop offset="1" stop-color="#fff6f7"></stop></linearGradient><linearGradient id="SVGID_00000152240596480353817490000005066671383232892319_" gradientUnits="userSpaceOnUse" x1="256" x2="256" y1="407" y2="105"><stop offset="0" stop-color="#ffa68d"></stop><stop offset="1" stop-color="#fd3a84"></stop></linearGradient><g><circle cx="256" cy="256" fill="url(#SVGID_1_)" r="256" data-original="url(#SVGID_1_)"></circle><path d="m224.148 386.355c0 11.402-9.243 20.645-20.645 20.645s-20.645-9.243-20.645-20.645 9.243-20.645 20.645-20.645c11.403.001 20.645 9.244 20.645 20.645zm120.918-20.644c-11.402 0-20.645 9.243-20.645 20.645s9.243 20.645 20.645 20.645 20.645-9.243 20.645-20.645-9.243-20.645-20.645-20.645zm-50.136-201.727c0-4.879-3.969-8.848-8.848-8.848h-8.848v17.695h8.848c4.879.001 8.848-3.968 8.848-8.847zm5.898 35.391c0-4.879-3.969-8.848-8.848-8.848h-14.746v17.695h14.746c4.879.001 8.848-3.968 8.848-8.847zm-97.324-17.695c0-42.349 34.331-76.68 76.68-76.68s76.68 34.331 76.68 76.68-34.331 76.68-76.68 76.68-76.68-34.331-76.68-76.68zm56.035-26.543v53.086h-2.949c-4.886 0-8.848 3.961-8.848 8.848s3.961 8.848 8.848 8.848h14.746v2.949c0 4.886 3.961 8.848 8.848 8.848s8.848-3.961 8.848-8.848v-2.949h2.949c14.636 0 26.543-11.907 26.543-26.543 0-8.482-4.004-16.042-10.217-20.905 2.726-4.169 4.318-9.144 4.318-14.486 0-13.639-10.341-24.903-23.594-26.375v-3.117c0-4.886-3.961-8.848-8.848-8.848s-8.848 3.961-8.848 8.848v2.949h-14.745c-4.886 0-8.848 3.961-8.848 8.848 0 4.886 3.961 8.848 8.848 8.848h2.949zm-100.273 189.929c0-8.131 6.615-14.746 14.746-14.746h200.547c4.347 0 8.05-3.158 8.737-7.45l23.591-147.447c.861-5.383-3.297-10.259-8.748-10.259h-25.029c.951 5.364 1.449 10.883 1.449 16.516 0 52.039-42.336 94.375-94.375 94.375s-94.375-42.336-94.375-94.375c0-5.633.498-11.151 1.449-16.516h-17.498l-3.974-24.838c-2.073-12.95-13.095-22.35-26.21-22.35h-25.728c-4.886 0-8.848 3.961-8.848 8.848 0 4.886 3.961 8.848 8.848 8.848h25.728c4.372 0 8.046 3.134 8.737 7.45l27.12 169.503h-1.421c-17.888 0-32.441 14.553-32.441 32.441 0 15.275 10.617 28.104 24.857 31.529 1.686-6.401 4.994-12.146 9.45-16.783h-1.866c-8.131 0-14.746-6.615-14.746-14.746zm238.886 14.746h-25.459c4.666 4.855 8.066 10.929 9.672 17.695h15.788c4.886 0 8.848-3.961 8.848-8.848-.001-4.885-3.962-8.847-8.849-8.847zm-157.35 17.696h66.967c1.605-6.766 5.005-12.84 9.672-17.695h-86.31c4.666 4.854 8.066 10.929 9.671 17.695z" fill="url(#SVGID_00000152240596480353817490000005066671383232892319_)" data-original="url(#SVGID_00000152240596480353817490000005066671383232892319_)"></path></g></g></svg>